<svg fill="#0C9F45" xmlns="http://www.w3.org/2000/svg" xmlns:xlink="http://www.w3.org/1999/xlink" version="1.1" x="0px" y="0px" viewBox="0 0 100 100" enable-background="new 0 0 100 100" xml:space="preserve"><g><path fill="none" d="M32,36.125c1-1.25,0.531-2.5,0.906-3.625c-2.375,0.125-5.328,1.125-7.578,2.375   C27.453,35.125,30,35.75,32,36.625C32,36.375,32,36.25,32,36.125z"></path><path fill="none" d="M42.312,53l-4.375-4h-7l3.75,4H42.312z M36.812,49.625c0.75,0,1.25,0.5,1.25,1.25s-0.5,1.375-1.25,1.375   s-1.375-0.625-1.375-1.375S36.062,49.625,36.812,49.625z"></path><path fill="none" d="M36.812,51.875c0.5,0,0.875-0.5,0.875-1S37.312,50,36.812,50s-1,0.375-1,0.875S36.312,51.875,36.812,51.875z    M36.812,50.75c0.125,0,0.125,0,0.125,0.125s0,0.25-0.125,0.25s-0.25-0.125-0.25-0.25S36.688,50.75,36.812,50.75z"></path><path fill="none" d="M66,33.25c0,0.375,0,0.75,0,1.125c0,1,0,2,0,3L65.656,38.5c1.375-1.375,3.859-2.375,6.484-3   C70.016,34.375,67,33.25,66,33.25z"></path><path fill="none" d="M82.812,35.625l-0.125,2.25l-1.75-1.375c-0.75-0.625-1.25-1.25-1.75-1.875c-0.75-0.75-1.25-1.375-2-1.75   c0,0.25,0.125,0.5,0.125,0.75c0.125,0.25,0.25,0.625,0.25,0.875c0.5,0,0.875-0.125,1.125-0.125l0.344,2.25   c-0.375,0-1.031,0.125-1.031,0.25s0,0.25,0,0.375l0.156,1.875l-1.734-0.875c-0.25-0.125-0.492-0.25-0.867-0.5   c-6.25,2.625-7.246,5.688-7.246,5.812L68.186,44h-0.124c-1.125,1-2.624,2-4.249,2h11l-7.5,9H53.188l8.125-8.062   c-1.75,0.375-3.125,0.531-3.25,0.531l-7.125,0.766l6.625-2.867c1.875-0.75,5.375-4.121,7-5.746l-1.125-1.748   c-1.5-2.375-5.375-4.874-8.75-6.499c-0.125,2.5-0.375,4.751-0.625,6.751L53.312,44l-1.5-5.75C50.938,34.625,49.688,32,47.938,30   c-1.625,2.25-3.25,5.375-4.75,8.125l-2,3.625l-0.094-4C40.969,36.625,41,35.5,41,34.375c0-0.375,0-0.875,0-1.25   c-1,0.25-1.031,0.5-1.531,0.625c-2.125,1-4.266,1.875-5.016,4c0.625,0.375,1.242,1,1.492,1.5c1.5,1.5,5.246,5.25,7.246,6.125   l6.623,2.875l-7.126-0.75c-0.125,0-1.376-0.188-3.001-0.562l8,8.062h-14l-7.625-9h10.875c-1.625,0-2.906-1-3.906-2H33v-0.75   c0,0-1.469-3.625-10.094-6.375L18.422,40l3.695-5.312L22.188,34c0,0,0.125,0,0.25,0l0.75-0.938c0.125,0,0.125-0.031,0.125-0.031   c-1.5,0.625-3.156,1.547-4.156,2.672L17,37.75v-2.875C17,34,17.562,33,17.938,32.25C17.562,32.5,17,32.875,17,33.125V65l15.062,21   h36.75L84,65V33.125c0-0.25-0.969-0.75-1.844-1.375C82.531,33,82.812,34.375,82.812,35.625z M67.688,84.125l-1-0.375   c0-0.125-5.625-2.375-14.75-2.375c-5.375,0-10.875,0.75-16.375,2.375L34.438,84l-3.375-9.875l1.625-11.25l0.375-0.25   c0.125,0,2.375-1.625,6-1.625c2,0,4.125,0.5,6.25,1.5c0.625,0.125,5.625,1.375,10.5,1.125c0.75-0.5,2.875-1.625,6-1.625   c1.625,0,3.25,0.25,5,0.875l0.5,0.25l4.625,13L67.688,84.125z"></path><path fill="none" d="M64.188,51.625c0.5,0,0.875-0.375,0.875-0.875s-0.375-1-0.875-1s-0.875,0.5-0.875,1   S63.688,51.625,64.188,51.625z M64.188,50.5c0.125,0,0.25,0.125,0.25,0.25s-0.125,0.125-0.25,0.125s-0.25,0-0.25-0.125   S64.062,50.5,64.188,50.5z"></path><path fill="none" d="M66.312,53l3.625-4h-7l-4.25,4H66.312z M64.188,49.375c0.75,0,1.375,0.625,1.375,1.375S64.938,52,64.188,52   s-1.375-0.5-1.375-1.25S63.438,49.375,64.188,49.375z"></path><path d="M64.188,50.875c0.125,0,0.25,0,0.25-0.125s-0.125-0.25-0.25-0.25s-0.25,0.125-0.25,0.25S64.062,50.875,64.188,50.875z"></path><path d="M64.188,52c0.75,0,1.375-0.5,1.375-1.25s-0.625-1.375-1.375-1.375S62.812,50,62.812,50.75S63.438,52,64.188,52z    M64.188,49.75c0.5,0,0.875,0.5,0.875,1s-0.375,0.875-0.875,0.875s-0.875-0.375-0.875-0.875S63.688,49.75,64.188,49.75z"></path><path d="M36.812,52.25c0.75,0,1.25-0.625,1.25-1.375s-0.5-1.25-1.25-1.25s-1.375,0.5-1.375,1.25S36.062,52.25,36.812,52.25z    M36.812,50c0.5,0,0.875,0.375,0.875,0.875s-0.375,1-0.875,1s-1-0.5-1-1S36.312,50,36.812,50z"></path><path d="M36.812,51.125c0.125,0,0.125-0.125,0.125-0.25s0-0.125-0.125-0.125s-0.25,0-0.25,0.125S36.688,51.125,36.812,51.125z"></path><path d="M76.312,20.125c-0.5-0.25-1-0.375-1.5-0.625c-5.625-2.75-12-4.375-20.75-5c-25.875-1.875-37.75,8.625-42.375,15.125   c-0.5,0.625-0.875,1.25-1.25,2c-0.125,0.25-0.25,0.625-0.5,0.875l-1.125,1.875L11.062,34c0.125,0,0.25,0,0.5,0s0.5,0,0.875,0h0.5   l0.156-0.438C13.219,33.188,14,33,14,32.625V65.75l16.312,22.125L31,87.5V88h38.938L86,65.75V33.375l1.906,2.375l0.203-3.375   C88.109,25.75,81.312,22.5,76.312,20.125z M66,37.375c0-1,0-2,0-3c0-0.375,0-0.75,0-1.125c1,0,3.906,1.125,6.031,2.25   c-2.625,0.625-4.891,1.625-6.266,3L66,37.375z M32.906,32.5C32.531,33.625,33,34.875,32,36.125c0,0.125,0,0.25,0,0.5   c-2-0.875-4.547-1.5-6.672-1.75C27.578,33.625,30.531,32.625,32.906,32.5z M84,65L68.812,86h-36.75L17,65V33.125   c0-0.25,0.562-0.625,0.938-0.875C17.562,33,17,34,17,34.875v2.875l2.156-2c1-1.125,2.578-2,4.078-2.625   c0,0,0.039-0.062-0.086-0.062L22.438,34c-0.125,0-0.25,0-0.25,0l-0.125,0.688l-3.75,5.219l4.594-3.078   C31.531,39.578,33,43.25,33,43.25V44h0.031c1,1,2.281,2,3.906,2H26.062l7.625,9h14l-8-8.062c1.625,0.375,2.875,0.531,3,0.531   l7.125,0.766l-6.625-2.867c-2-0.875-5.75-4.621-7.25-6.121c-0.25-0.5-0.875-1.123-1.5-1.498c0.75-2.125,2.906-2.999,5.031-3.999   c0.5-0.125,0.531-0.374,1.531-0.624c0,0.375,0,0.875,0,1.25c0,1.125-0.031,2.25,0.094,3.375l0.109,4l1.992-3.625   c1.5-2.75,3.121-5.875,4.746-8.125c1.75,2,2.998,4.625,3.873,8.25L53.313,44l0.749-5.875c0.25-2,0.5-4.25,0.625-6.75   c3.375,1.625,7.25,4.125,8.75,6.5l1.125,1.75c-1.625,1.625-5.125,5-7,5.75l-6.625,2.875l7.125-0.75c0.125,0,1.5-0.188,3.25-0.562   L53.188,55h14.125l7.5-9h-11c1.625,0,3.125-1.25,4.25-2.375l0.125-0.062l0.125-0.219c0-0.125,1-2.984,7.25-5.609   c0.375,0.25,0.625,0.383,0.875,0.508l1.719,0.879L78,37.25c0-0.125,0-0.25,0-0.375s0.656-0.25,1.031-0.25l-0.359-2.25   c-0.25,0-0.617,0.125-1.117,0.125c0-0.25-0.121-0.625-0.246-0.875c0-0.25-0.123-0.5-0.123-0.75c0.75,0.375,1.251,1,2.001,1.75   c0.5,0.625,1.001,1.25,1.751,1.875l1.75,1.375l0.125-2.25c0-1.25-0.281-2.625-0.656-3.875C83.031,32.375,84,32.875,84,33.125V65z    M37.938,49l4.375,4h-7.625l-3.75-4H37.938z M62.938,49h7l-3.625,4h-7.625L62.938,49z"></path><path d="M66.812,62.875c-1.75-0.625-3.375-0.875-5-0.875c-3.125,0-5.25,1.125-6,1.625c-4.875,0.25-9.875-1-10.5-1.125   c-2.125-1-4.25-1.5-6.25-1.5c-3.625,0-5.875,1.625-6,1.625l-0.375,0.25l-1.625,11.25L34.438,84l1.125-0.25   c5.5-1.625,11-2.375,16.375-2.375c9.125,0,14.75,2.25,14.75,2.375l1,0.375l4.25-8l-4.625-13L66.812,62.875z"></path></g></svg>