<svg fill="#FFFFFF" xmlns="http://www.w3.org/2000/svg" data-name="Layer 1" viewBox="0 0 100 100" x="0px" y="0px"><title>10</title><g data-name="Group"><path data-name="Compound Path" d="M96.72,81.12V76.45a12.52,12.52,0,0,0-7-11.25L78.42,59.52a1.25,1.25,0,0,1-.7-1.14V55l.51-.7a28.9,28.9,0,0,0,3.5-6.67,6.6,6.6,0,0,0,3.11-5.6V37.31a6.56,6.56,0,0,0-1.19-3.76V30.81a12.46,12.46,0,0,0-2.95-9.1c-2.81-3.2-7.24-4.83-13.17-4.83a21.35,21.35,0,0,0-8.79,1.64A21.26,21.26,0,0,0,50,16.88a21.25,21.25,0,0,0-8.75,1.64,21.34,21.34,0,0,0-8.78-1.64c-5.93,0-10.36,1.62-13.17,4.83a12.54,12.54,0,0,0-2.95,9.06v2.78a6.56,6.56,0,0,0-1.19,3.76v4.75a6.56,6.56,0,0,0,2,4.71,26.72,26.72,0,0,0,4,8.19v3.31a1.27,1.27,0,0,1-.66,1.11L9.84,65.17a12.57,12.57,0,0,0-6.56,11v4.9a2,2,0,0,0,2,2H94.72A2,2,0,0,0,96.72,81.12Zm-75.9-4.9v2.9H7.28v-2.9a8.57,8.57,0,0,1,4.47-7.53L22.35,62.9a5.26,5.26,0,0,0,2.75-4.63v-4a2,2,0,0,0-.42-1.22,22.73,22.73,0,0,1-3.82-7.89,2,2,0,0,0-.7-1.09,2.56,2.56,0,0,1-1-2V37.31a2.59,2.59,0,0,1,.67-1.73,2,2,0,0,0,.51-1.34V30.67a2,2,0,0,0,0-.23,8.61,8.61,0,0,1,2-6.09c2-2.3,5.44-3.47,10.16-3.47a20.9,20.9,0,0,1,4.69.5c-.11.11-.23.21-.33.33a12.5,12.5,0,0,0-2.95,9.06v2.78a6.56,6.56,0,0,0-1.19,3.76v4.75a6.56,6.56,0,0,0,2,4.71,26.72,26.72,0,0,0,4,8.19v3.31A1.27,1.27,0,0,1,38,59.39L27.38,65.17A12.57,12.57,0,0,0,20.82,76.22Zm54.36,2.9H24.82v-2.9a8.57,8.57,0,0,1,4.47-7.53L39.88,62.9a5.26,5.26,0,0,0,2.75-4.63v-4a2,2,0,0,0-.42-1.22,22.73,22.73,0,0,1-3.82-7.89,2,2,0,0,0-.7-1.09,2.56,2.56,0,0,1-1-2V37.31a2.59,2.59,0,0,1,.67-1.73,2,2,0,0,0,.51-1.34V30.67a2.1,2.1,0,0,0,0-.23,8.58,8.58,0,0,1,2-6.08c2-2.3,5.44-3.47,10.16-3.47S58.15,22,60.16,24.35a8.61,8.61,0,0,1,2,6.14,2.07,2.07,0,0,0,0,.22v3.54a2,2,0,0,0,.51,1.34,2.59,2.59,0,0,1,.67,1.73v4.75a2.57,2.57,0,0,1-1.55,2.37,2,2,0,0,0-1.08,1.18A25.11,25.11,0,0,1,57.43,52c-.27.38-.54.73-.79,1a2,2,0,0,0-.46,1.27v4.06A5.24,5.24,0,0,0,59.1,63.1l11.34,5.67a8.54,8.54,0,0,1,4.74,7.68Zm17.53,0H79.18V76.45a12.52,12.52,0,0,0-7-11.25h0L60.88,59.52a1.25,1.25,0,0,1-.7-1.14V55l.51-.7a29,29,0,0,0,3.5-6.67,6.6,6.6,0,0,0,3.11-5.6V37.31a6.56,6.56,0,0,0-1.19-3.76V30.81a12.47,12.47,0,0,0-2.95-9.1c-.11-.12-.23-.23-.34-.34a21.08,21.08,0,0,1,4.71-.49c4.73,0,8.15,1.17,10.16,3.47a8.61,8.61,0,0,1,2,6.14,2.07,2.07,0,0,0,0,.22v3.54a2,2,0,0,0,.51,1.34,2.59,2.59,0,0,1,.67,1.73v4.75a2.57,2.57,0,0,1-1.55,2.37,2,2,0,0,0-1.08,1.18A25,25,0,0,1,75,52c-.27.38-.54.73-.79,1a2,2,0,0,0-.46,1.27v4.06a5.24,5.24,0,0,0,2.91,4.71L88,68.77a8.54,8.54,0,0,1,4.74,7.68Z"></path></g></svg>